<svg width="100" height="22" viewBox="0 0 100 22" fill="none" xmlns="http://www.w3.org/2000/svg">
<g clip-path="url(#clip0_239_33612)">
<path fill-rule="evenodd" clip-rule="evenodd" d="M70.5312 14.538C70.3267 14.2259 70.0862 13.9617 69.8216 13.7576C69.5569 13.5535 69.2803 13.3854 68.9916 13.2654C68.703 13.1453 68.4143 13.0493 68.1256 13.0013C67.2235 12.8452 66.4898 12.9292 65.8643 13.1813C65.6358 13.2774 65.4193 13.3854 65.2268 13.5175V9.19531H63.2663V21.2254H64.8059L64.9983 20.6491C65.1186 20.7572 65.2509 20.8532 65.4313 20.9613C65.6358 21.0814 65.8884 21.1894 66.1891 21.2855C66.4898 21.3695 66.8266 21.4175 67.2115 21.4175C67.7167 21.4175 68.2098 21.3335 68.6789 21.1534C69.16 20.9733 69.593 20.6972 69.9659 20.337C70.3388 19.9768 70.6395 19.5206 70.856 18.9683C71.0845 18.428 71.1928 17.7797 71.1928 17.0353C71.1928 16.507 71.1326 16.0268 71.0123 15.6186C70.8921 15.1984 70.7357 14.8382 70.5312 14.538ZM69.172 17.1314C69.172 17.5276 69.1239 17.8997 69.0277 18.2359C68.9315 18.5601 68.7992 18.8362 68.6188 19.0643C68.4504 19.2804 68.2218 19.4605 67.9692 19.5806C67.5362 19.7847 66.8867 19.8207 66.4056 19.6766C66.2011 19.6166 66.0207 19.5326 65.8643 19.4485C65.708 19.3525 65.5636 19.2564 65.4554 19.1604C65.3712 19.0883 65.299 19.0163 65.2389 18.9443V15.2824C65.4674 15.0903 65.744 14.9342 66.0327 14.8022C66.574 14.5741 67.1994 14.514 67.8249 14.6941C68.0534 14.7662 68.2699 14.8862 68.4744 15.0663C68.6789 15.2464 68.8473 15.4985 68.9796 15.8227C69.1119 16.1589 69.1841 16.6031 69.1841 17.1554L69.172 17.1314ZM45.6211 10.0116H43.6605V11.9926H45.6211V10.0116ZM36.0828 16.1946C35.8663 16.6509 35.6137 17.2512 35.301 18.0076C35.0244 17.3232 34.7597 16.7109 34.5312 16.1946L31.7166 10.0475H29.1667V21.2132H31.1994V15.8105C31.1994 15.0421 31.1874 14.2136 31.1513 13.3372C31.3475 13.8095 31.5548 14.2597 31.7519 14.6878L31.7768 14.7419L34.7838 21.2132H35.8302L38.8373 14.7419C39.0417 14.3217 39.2462 13.8535 39.4627 13.3372C39.4266 14.2256 39.4146 15.0421 39.4146 15.7984V21.2012H41.4474V10.0355H38.8974L36.0828 16.1826V16.1946ZM43.6966 13.1081H45.6572V21.2122H43.6966V13.1081ZM52.4169 12.9177C51.996 12.9057 51.6111 12.9417 51.2382 13.0258C50.9255 13.0978 50.6368 13.2059 50.3722 13.3499C50.1075 13.482 49.867 13.6501 49.6505 13.8302C49.6024 13.8662 49.5543 13.9142 49.5061 13.9623L49.3137 13.1098H47.714V21.214H49.6745V15.7872C49.7948 15.6311 49.9271 15.499 50.0955 15.379C50.288 15.2349 50.5165 15.1148 50.7571 15.0188C50.9976 14.9227 51.2743 14.8507 51.5629 14.7907C51.8516 14.7427 52.1523 14.7186 52.453 14.7186H52.862V12.9658L52.5853 12.9297C52.5853 12.9297 52.4771 12.9297 52.4049 12.9177H52.4169ZM59.1888 13.2178C59.718 13.4219 60.1751 13.7221 60.5359 14.0943L60.5119 14.1063C60.8727 14.4905 61.1614 14.9467 61.3539 15.463C61.5463 15.9792 61.6425 16.5555 61.6425 17.1798C61.6425 17.8042 61.5343 18.3805 61.3418 18.8967C61.1374 19.413 60.8487 19.8692 60.4878 20.2414C60.115 20.6136 59.6699 20.9017 59.1527 21.1058C58.6355 21.2979 58.0702 21.406 57.4207 21.406C56.7712 21.406 56.1818 21.3099 55.6646 21.1058C55.1474 20.9017 54.7023 20.6016 54.3295 20.2294C53.9686 19.8572 53.6799 19.401 53.4875 18.8847C53.295 18.3684 53.1988 17.8042 53.1988 17.1678C53.1988 16.5315 53.3071 15.9552 53.4995 15.439C53.704 14.9227 53.9806 14.4665 54.3535 14.0943C54.7264 13.7221 55.1834 13.4219 55.7007 13.2178C56.7471 12.8096 58.1664 12.8216 59.1888 13.2178ZM59.4775 18.3084C59.5857 17.9843 59.6459 17.6001 59.6459 17.1798L59.6579 17.1918C59.6579 16.7716 59.5978 16.3874 59.4895 16.0633C59.3812 15.7391 59.2249 15.463 59.0324 15.2469C58.84 15.0307 58.6115 14.8627 58.3468 14.7546C58.0822 14.6466 57.7815 14.5865 57.4568 14.5865C57.132 14.5865 56.8313 14.6466 56.5667 14.7546C56.3021 14.8627 56.0735 15.0307 55.8811 15.2469C55.6886 15.463 55.5323 15.7271 55.424 16.0513C55.3158 16.3754 55.2556 16.7596 55.2556 17.1798C55.2556 17.6001 55.3158 17.9843 55.424 18.3084C55.5323 18.6326 55.6886 18.8967 55.8811 19.1128C56.0735 19.3289 56.3021 19.497 56.5667 19.6051C57.0959 19.8332 57.8056 19.8332 58.3348 19.6051C58.5994 19.485 58.828 19.3289 59.0204 19.1128C59.2129 18.8967 59.3692 18.6326 59.4775 18.3084ZM76.2086 13.0258C76.5814 12.9417 76.9663 12.9057 77.3873 12.9177H77.3753C77.4475 12.9297 77.5557 12.9297 77.5557 12.9297L77.8324 12.9658V14.7186H77.4234C77.1227 14.7186 76.822 14.7427 76.5333 14.7907C76.2446 14.8507 75.968 14.9227 75.7274 15.0188C75.4869 15.1148 75.2583 15.2349 75.0659 15.379C74.8975 15.499 74.7652 15.6311 74.6449 15.7872V21.214H72.6843V13.1098H74.2841L74.4765 13.9623C74.5246 13.9142 74.5727 13.8662 74.6209 13.8302C74.8374 13.6501 75.0779 13.482 75.3425 13.3499C75.6072 13.2059 75.8958 13.0978 76.2086 13.0258ZM80.719 13.1081H78.7584V21.2122H80.719V13.1081ZM78.7224 10.0116H80.683V11.9926H78.7224V10.0116ZM87.8036 19.641C87.0458 19.7851 86.2881 19.7611 85.7348 19.5449C85.4221 19.4249 85.1695 19.2568 84.965 19.0407C84.7605 18.8246 84.6041 18.5604 84.4959 18.2603C84.3876 17.9481 84.3395 17.612 84.3395 17.2398C84.3395 16.7235 84.4117 16.2913 84.556 15.9551C84.7004 15.619 84.8808 15.3548 85.1093 15.1627C85.3379 14.9586 85.5904 14.8145 85.8791 14.7305C86.4685 14.5504 87.0819 14.5624 87.6713 14.6825C87.96 14.7425 88.2847 14.8386 88.6456 14.9586L89.0545 15.1027V13.4699L88.8861 13.3858C88.5975 13.2417 88.2607 13.1217 87.8638 13.0376C87.1902 12.8936 86.4444 12.8696 85.6626 13.0136C85.3258 13.0737 84.989 13.1817 84.6643 13.3258C84.3395 13.4699 84.0388 13.662 83.7501 13.8781C83.4615 14.1062 83.2089 14.3943 82.9924 14.7185C82.7759 15.0427 82.6075 15.4269 82.4872 15.8471C82.3669 16.2673 82.3068 16.7475 82.3068 17.2638C82.3068 17.9601 82.4271 18.5845 82.6556 19.1007C82.8841 19.629 83.2089 20.0612 83.6178 20.4094C84.0148 20.7456 84.4959 21.0097 85.0251 21.1658C85.5544 21.3219 86.1077 21.4059 86.697 21.4059C86.9256 21.4059 87.1541 21.3939 87.3706 21.3699C87.5991 21.3459 87.8036 21.3098 88.0081 21.2738C88.1553 21.2479 88.29 21.2095 88.4213 21.1721C88.4723 21.1576 88.5229 21.1432 88.5734 21.1298C88.7538 21.0697 88.8982 21.0097 89.0064 20.9497L89.1748 20.8656V19.2208L88.7538 19.3769C88.4531 19.4849 88.1284 19.581 87.8036 19.641ZM96.127 13.1093H98.8333L94.419 16.8792L98.7251 21.2134H96.1871L92.6389 17.6476V21.2134H90.6783V9.19531H92.6389V16.1108L96.127 13.1093Z" fill="#373737"/>
<path d="M12.9586 18.7353H21.1158V8.77078L11.8056 3.46634L2.49534 8.77078V9.76608H0.0458913H0V7.31522L11.8056 0.583984L23.6111 7.31522V21.2437H12.9586V21.2322V19.6271V18.9079V18.7353Z" fill="#373737"/>
<path fill-rule="evenodd" clip-rule="evenodd" d="M2.44945 12.0896H3.01162H4.76697V11.5948V10.4902H2.44945H0V11.5948V12.0896H1.87581H2.44945ZM2.44945 15.7428H3.01162H4.76697V15.248V14.6382V14.1434H3.01162H2.44945H1.87581H0V14.6382V15.248V15.7428H1.87581H2.44945ZM2.28883 13.4241V13.9189H1.87581H0V13.4241V12.8143V12.3138H1.87581H2.28883V12.8143V13.4241ZM2.59861 12.3138V12.8143V13.4241V13.9189H3.01163H5.48403H7.36557V12.3138H5.48403H3.01163H2.59861ZM2.28883 17.0774V17.5721H1.87581H0V17.0774V16.4675V15.9728H1.87581H2.28883V16.4675V17.0774ZM7.36557 17.5721V17.0774V15.9728H5.48403H3.01163H2.59861V16.4675V17.0774V17.5721H3.01163H4.22775H5.36356H7.36557ZM4.22774 19.4015H2.95426H1.75534H0V18.9067V18.2969V17.8021H1.87581H2.44945H3.01162H4.22774H4.64077V18.2969V18.7341V18.9067V19.4015H4.22774ZM4.95053 17.8021V18.2969V18.7341V18.9067V19.4015H5.36355H6.70587H7.84169H9.7175V18.9067V18.7341V17.8021H8.08262H5.36355H4.95053ZM0 20.1268V19.6262H1.75535H2.23147V20.1268V21.2314H1.75535H0V20.1268ZM5.36356 19.6262H4.22775H2.95426H2.4724V20.1268V21.2314H2.95426H6.70588H7.1189V20.1268V19.6262H6.70588H5.36356ZM7.84169 19.6262H10.4403H12.1899V21.2314H7.84169H7.42293V20.1268V19.6262H7.84169Z" fill="#FF8E2A"/>
</g>
<defs>
<clipPath id="clip0_239_33612">
<rect width="100" height="20.8333" fill="white" transform="translate(0 0.583984)"/>
</clipPath>
</defs>
</svg>
