<svg width="240" height="50" viewBox="0 0 240 50" fill="none" xmlns="http://www.w3.org/2000/svg">
<path fill-rule="evenodd" clip-rule="evenodd" d="M169.275 33.4885C168.784 32.7394 168.207 32.1054 167.572 31.6156C166.937 31.1257 166.273 30.7223 165.58 30.4342C164.887 30.146 164.194 29.9155 163.501 29.8003C161.336 29.4257 159.575 29.6274 158.074 30.2325C157.526 30.463 157.006 30.7223 156.544 31.0393V20.666H151.839V49.5383H155.534L155.996 48.1552C156.285 48.4145 156.602 48.6451 157.035 48.9044C157.526 49.1925 158.132 49.4519 158.854 49.6824C159.575 49.8841 160.384 49.9993 161.307 49.9993C162.52 49.9993 163.703 49.7976 164.829 49.3654C165.984 48.9332 167.023 48.2705 167.918 47.406C168.813 46.5416 169.535 45.4466 170.054 44.1212C170.603 42.8245 170.863 41.2685 170.863 39.482C170.863 38.2141 170.718 37.0616 170.43 36.0819C170.141 35.0733 169.766 34.2089 169.275 33.4885ZM166.013 39.7125C166.013 40.6634 165.897 41.5566 165.666 42.3635C165.436 43.1415 165.118 43.8042 164.685 44.3517C164.281 44.8703 163.732 45.3026 163.126 45.5907C162.087 46.0806 160.528 46.167 159.373 45.8212C158.883 45.6771 158.45 45.4754 158.074 45.2737C157.699 45.0432 157.353 44.8127 157.093 44.5822C156.891 44.4093 156.718 44.2364 156.573 44.0635V35.2751C157.122 34.814 157.786 34.4394 158.478 34.1225C159.778 33.575 161.279 33.4309 162.78 33.8631C163.328 34.036 163.848 34.3242 164.339 34.7564C164.829 35.1886 165.233 35.7937 165.551 36.5717C165.869 37.3785 166.042 38.4447 166.042 39.7701L166.013 39.7125ZM109.491 22.625H104.785V27.3794H109.491V22.625ZM86.5988 37.4644C86.0791 38.5594 85.4729 40.0001 84.7224 41.8154C84.0584 40.173 83.4233 38.7034 82.8749 37.4644L76.1199 22.7113H70V49.5089H74.8786V36.5423C74.8786 34.6982 74.8497 32.71 74.7631 30.6065C75.234 31.7401 75.7314 32.8206 76.2045 33.848L76.2642 33.9778L83.4811 49.5089H85.9925L93.2094 33.9778C93.7001 32.9693 94.1909 31.8456 94.7105 30.6065C94.6239 32.7388 94.595 34.6982 94.595 36.5135V49.4801H99.4736V22.6825H93.3537L86.5988 37.4356V37.4644ZM104.872 30.0566H109.577V49.5065H104.872V30.0566ZM125.801 29.5998C124.79 29.571 123.866 29.6574 122.972 29.8591C122.221 30.032 121.528 30.2914 120.893 30.6371C120.258 30.9541 119.681 31.3575 119.161 31.7897C119.046 31.8762 118.93 31.9914 118.815 32.1067L118.353 30.0608H114.513V49.5107H119.219V36.4865C119.508 36.1119 119.825 35.795 120.229 35.5068C120.691 35.161 121.24 34.8729 121.817 34.6424C122.394 34.4119 123.058 34.239 123.751 34.0949C124.444 33.9796 125.166 33.922 125.887 33.922H126.869V29.7151L126.205 29.6286C126.205 29.6286 125.945 29.6286 125.772 29.5998H125.801ZM142.053 30.32C143.323 30.8099 144.42 31.5303 145.286 32.4235L145.228 32.4523C146.095 33.3744 146.787 34.4694 147.249 35.7084C147.711 36.9474 147.942 38.3305 147.942 39.8289C147.942 41.3272 147.682 42.7104 147.22 43.9494C146.73 45.1884 146.037 46.2834 145.171 47.1766C144.276 48.0699 143.208 48.7614 141.966 49.2513C140.725 49.7123 139.368 49.9716 137.81 49.9716C136.251 49.9716 134.836 49.7411 133.595 49.2513C132.354 48.7614 131.286 48.0411 130.391 47.1478C129.525 46.2545 128.832 45.1596 128.37 43.9206C127.908 42.6815 127.677 41.3272 127.677 39.8001C127.677 38.2729 127.937 36.8898 128.399 35.6508C128.89 34.4117 129.553 33.3168 130.448 32.4235C131.343 31.5303 132.44 30.8099 133.682 30.32C136.193 29.3403 139.599 29.3692 142.053 30.32ZM142.746 42.5375C143.006 41.7595 143.15 40.8374 143.15 39.8289L143.179 39.8577C143.179 38.8492 143.035 37.9271 142.775 37.1491C142.515 36.3711 142.14 35.7084 141.678 35.1897C141.216 34.6711 140.667 34.2677 140.032 34.0083C139.397 33.749 138.676 33.6049 137.896 33.6049C137.117 33.6049 136.395 33.749 135.76 34.0083C135.125 34.2677 134.576 34.6711 134.115 35.1897C133.653 35.7084 133.277 36.3423 133.018 37.1203C132.758 37.8983 132.613 38.8204 132.613 39.8289C132.613 40.8374 132.758 41.7595 133.018 42.5375C133.277 43.3155 133.653 43.9494 134.115 44.4681C134.576 44.9867 135.125 45.3901 135.76 45.6495C137.03 46.1969 138.733 46.1969 140.003 45.6495C140.639 45.3613 141.187 44.9867 141.649 44.4681C142.111 43.9494 142.486 43.3155 142.746 42.5375ZM182.9 29.8591C183.795 29.6574 184.719 29.571 185.729 29.5998H185.701C185.874 29.6286 186.134 29.6286 186.134 29.6286L186.798 29.7151V33.922H185.816C185.094 33.922 184.373 33.9796 183.68 34.0949C182.987 34.239 182.323 34.4119 181.746 34.6424C181.168 34.8729 180.62 35.161 180.158 35.5068C179.754 35.795 179.436 36.1119 179.148 36.4865V49.5107H174.442V30.0608H178.282L178.744 32.1067C178.859 31.9914 178.975 31.8762 179.09 31.7897C179.61 31.3575 180.187 30.9541 180.822 30.6371C181.457 30.2914 182.15 30.032 182.9 29.8591ZM193.726 30.0566H189.02V49.5065H193.726V30.0566ZM188.934 22.625H193.639V27.3794H188.934V22.625ZM210.729 45.7357C208.91 46.0814 207.091 46.0238 205.763 45.5051C205.013 45.217 204.407 44.8136 203.916 44.2949C203.425 43.7763 203.05 43.1423 202.79 42.422C202.53 41.6728 202.415 40.866 202.415 39.9727C202.415 38.7337 202.588 37.6964 202.934 36.8896C203.281 36.0828 203.714 35.4488 204.262 34.9878C204.811 34.4979 205.417 34.1522 206.11 33.9505C207.524 33.5182 208.997 33.5471 210.411 33.8352C211.104 33.9793 211.883 34.2098 212.749 34.4979L213.731 34.8437V30.9249L213.327 30.7232C212.634 30.3774 211.826 30.0893 210.873 29.8876C209.256 29.5418 207.467 29.4842 205.59 29.83C204.782 29.974 203.974 30.2334 203.194 30.5791C202.415 30.9249 201.693 31.386 201 31.9046C200.307 32.4521 199.701 33.1436 199.182 33.9216C198.662 34.6996 198.258 35.6217 197.969 36.6302C197.681 37.6387 197.536 38.7913 197.536 40.0304C197.536 41.7016 197.825 43.2 198.373 44.439C198.922 45.7068 199.701 46.7442 200.683 47.5798C201.635 48.3866 202.79 49.0205 204.06 49.3951C205.33 49.7697 206.658 49.9714 208.073 49.9714C208.621 49.9714 209.17 49.9426 209.689 49.885C210.238 49.8273 210.729 49.7409 211.219 49.6545C211.573 49.5922 211.896 49.5001 212.211 49.4104C212.334 49.3755 212.455 49.341 212.576 49.3087C213.009 49.1646 213.356 49.0205 213.615 48.8765L214.02 48.6748V44.7271L213.009 45.1017C212.287 45.3611 211.508 45.5916 210.729 45.7357ZM230.705 30.0596H237.2L226.606 39.1074L236.94 49.5095H230.849L222.333 40.9515V49.5095H217.628V20.666H222.333V37.2633L230.705 30.0596Z" fill="#373737"/>
<path d="M31.1006 43.5632H50.6778V19.6483L28.3333 6.91764L5.98882 19.6483V22.037H0.110139H0V16.155L28.3333 0L56.6667 16.155V49.5833H31.1006V49.5557V45.7034V43.9774V43.5632Z" fill="#373737"/>
<path fill-rule="evenodd" clip-rule="evenodd" d="M5.87868 27.6159H7.22789H11.4407V26.4284V23.7773H5.87868H0V26.4284V27.6159H4.50194H5.87868ZM5.87868 36.3835H7.22789H11.4407V35.196V33.7324V32.545H7.22789H5.87868H4.50194H0V33.7324V35.196V36.3835H4.50194H5.87868ZM5.4932 30.8187V32.0062H4.50194H0V30.8187V29.3551V28.1538H4.50194H5.4932V29.3551V30.8187ZM6.23665 28.1538V29.3551V30.8187V32.0062H7.22791H13.1617H17.6774V28.1538H13.1617H7.22791H6.23665ZM5.4932 39.5865V40.7739H4.50194H0V39.5865V38.1228V36.9354H4.50194H5.4932V38.1228V39.5865ZM17.6774 40.7739V39.5865V36.9354H13.1617H7.22791H6.23665V38.1228V39.5865V40.7739H7.22791H10.1466H12.8725H17.6774ZM10.1466 45.1643H7.09022H4.21283H0V43.9769V42.5133V41.3258H4.50194H5.87868H7.22789H10.1466H11.1378V42.5133V43.5626V43.9769V45.1643H10.1466ZM11.8813 41.3258V42.5133V43.5626V43.9769V45.1643H12.8725H16.0941H18.82H23.322V43.9769V43.5626V41.3258H19.3983H12.8725H11.8813ZM0 46.905V45.7038H4.21283H5.35552V46.905V49.5561H4.21283H0V46.905ZM12.8725 45.7038H10.1466H7.09022H5.93376V46.905V49.5561H7.09022H16.0941H17.0854V46.905V45.7038H16.0941H12.8725ZM18.8201 45.7038H25.0567H29.2558V49.5561H18.8201H17.815V46.905V45.7038H18.8201Z" fill="#FF8E2A"/>
</svg>
