<svg width="60" height="52" viewBox="0 0 60 52" fill="none" xmlns="http://www.w3.org/2000/svg">
<g clip-path="url(#clip0_206_37430)">
<path fill-rule="evenodd" clip-rule="evenodd" d="M35.625 45.6541C35.4489 45.3853 35.2417 45.1578 35.0138 44.982C34.7859 44.8062 34.5476 44.6615 34.299 44.5581C34.0504 44.4547 33.8018 44.3719 33.5532 44.3306C32.7762 44.1962 32.1443 44.2685 31.6057 44.4857C31.4088 44.5684 31.2224 44.6615 31.0566 44.7752V41.0527H29.3681V51.4136H30.6941L30.8598 50.9173C30.9634 51.0103 31.0773 51.0931 31.2327 51.1861C31.4088 51.2895 31.6264 51.3826 31.8854 51.4653C32.1443 51.5377 32.4344 51.5791 32.7659 51.5791C33.201 51.5791 33.6257 51.5067 34.0297 51.3516C34.4441 51.1965 34.817 50.9586 35.1381 50.6484C35.4593 50.3382 35.7182 49.9453 35.9047 49.4697C36.1015 49.0043 36.1947 48.446 36.1947 47.8049C36.1947 47.3499 36.143 46.9363 36.0394 46.5847C35.9358 46.2228 35.8011 45.9126 35.625 45.6541ZM34.4544 47.8876C34.4544 48.2288 34.413 48.5494 34.3301 48.8389C34.2472 49.1181 34.1333 49.3559 33.9779 49.5524C33.8329 49.7385 33.636 49.8936 33.4185 49.997C33.0456 50.1728 32.4862 50.2038 32.0718 50.0797C31.8957 50.028 31.7403 49.9556 31.6057 49.8833C31.471 49.8005 31.3467 49.7178 31.2535 49.6351C31.1809 49.5731 31.1188 49.511 31.067 49.449V46.2952C31.2638 46.1298 31.5021 45.9953 31.7507 45.8816C32.2169 45.6851 32.7555 45.6334 33.2942 45.7885C33.491 45.8506 33.6775 45.954 33.8536 46.1091C34.0297 46.2642 34.1747 46.4813 34.2887 46.7605C34.4026 47.05 34.4648 47.4326 34.4648 47.9083L34.4544 47.8876ZM14.1713 41.7559H12.4827V43.462H14.1713V41.7559ZM5.95649 47.0809C5.77003 47.4739 5.55249 47.9909 5.28315 48.6423C5.04489 48.0529 4.81699 47.5256 4.62017 47.0809L2.19613 41.7868H0V51.4031H1.75069V46.7501C1.75069 46.0883 1.74033 45.3748 1.70925 44.62C1.87823 45.0268 2.05674 45.4145 2.22648 45.7832L2.22649 45.7832L2.24793 45.8298L4.83771 51.4031H5.73895L8.32873 45.8298C8.50483 45.4679 8.68094 45.0646 8.8674 44.62C8.83633 45.3851 8.82597 46.0883 8.82597 46.7397V51.3928H10.5767V41.7764H8.38052L5.95649 47.0706V47.0809ZM12.5138 44.4234H14.2023V51.403H12.5138V44.4234ZM20.0242 44.2583C19.6616 44.248 19.3301 44.279 19.009 44.3514C18.7397 44.4134 18.491 44.5065 18.2631 44.6306C18.0352 44.7443 17.8281 44.8891 17.6416 45.0442C17.6001 45.0752 17.5587 45.1166 17.5173 45.1579L17.3515 44.4238H15.9738V51.4034H17.6623V46.7296C17.7659 46.5952 17.8798 46.4815 18.0249 46.3781C18.1906 46.254 18.3874 46.1506 18.5946 46.0678C18.8018 45.9851 19.0401 45.9231 19.2887 45.8714C19.5373 45.83 19.7963 45.8093 20.0553 45.8093H20.4075V44.2997L20.1692 44.2687C20.1692 44.2687 20.076 44.2687 20.0138 44.2583H20.0242ZM25.8564 44.5167C26.3122 44.6925 26.7058 44.951 27.0166 45.2715L26.9959 45.2819C27.3067 45.6128 27.5553 46.0057 27.721 46.4503C27.8868 46.8949 27.9696 47.3913 27.9696 47.929C27.9696 48.4667 27.8764 48.963 27.7107 49.4076C27.5346 49.8522 27.2859 50.2452 26.9752 50.5657C26.654 50.8863 26.2707 51.1344 25.8253 51.3102C25.3799 51.4757 24.893 51.5687 24.3336 51.5687C23.7742 51.5687 23.2666 51.486 22.8212 51.3102C22.3757 51.1344 21.9924 50.8759 21.6713 50.5554C21.3605 50.2348 21.1119 49.8419 20.9462 49.3973C20.7804 48.9526 20.6975 48.4667 20.6975 47.9186C20.6975 47.3706 20.7908 46.8743 20.9565 46.4296C21.1326 45.985 21.3709 45.5921 21.692 45.2715C22.0131 44.951 22.4068 44.6925 22.8522 44.5167C23.7535 44.1651 24.9758 44.1755 25.8564 44.5167ZM26.105 48.9009C26.1982 48.6218 26.25 48.2909 26.25 47.929L26.2604 47.9393C26.2604 47.5774 26.2086 47.2465 26.1154 46.9673C26.0221 46.6881 25.8875 46.4503 25.7217 46.2642C25.556 46.0781 25.3591 45.9333 25.1312 45.8402C24.9033 45.7472 24.6444 45.6955 24.3647 45.6955C24.085 45.6955 23.826 45.7472 23.5981 45.8402C23.3702 45.9333 23.1734 46.0781 23.0076 46.2642C22.8419 46.4503 22.7072 46.6778 22.614 46.957C22.5207 47.2362 22.4689 47.5671 22.4689 47.929C22.4689 48.2909 22.5207 48.6218 22.614 48.9009C22.7072 49.1801 22.8419 49.4076 23.0076 49.5937C23.1734 49.7799 23.3702 49.9246 23.5981 50.0177C24.0539 50.2141 24.6651 50.2141 25.1209 50.0177C25.3488 49.9143 25.5456 49.7799 25.7113 49.5937C25.8771 49.4076 26.0118 49.1801 26.105 48.9009ZM40.5145 44.3514C40.8356 44.279 41.1671 44.248 41.5297 44.2583H41.5193C41.5815 44.2687 41.6747 44.2687 41.6747 44.2687L41.913 44.2997V45.8093H41.5608C41.3018 45.8093 41.0428 45.83 40.7942 45.8714C40.5456 45.9231 40.3073 45.9851 40.1001 46.0678C39.893 46.1506 39.6961 46.254 39.5304 46.3781C39.3854 46.4815 39.2714 46.5952 39.1678 46.7296V51.4034H37.4793V44.4238H38.857L39.0228 45.1579C39.0642 45.1166 39.1057 45.0752 39.1471 45.0442C39.3336 44.8891 39.5407 44.7443 39.7686 44.6306C39.9965 44.5065 40.2452 44.4134 40.5145 44.3514ZM44.3992 44.4234H42.7106V51.403H44.3992V44.4234ZM42.6796 41.7559H44.3681V43.462H42.6796V41.7559ZM50.5007 50.0491C49.8481 50.1731 49.1954 50.1525 48.7189 49.9663C48.4496 49.8629 48.232 49.7182 48.0559 49.5321C47.8798 49.3459 47.7452 49.1184 47.6519 48.8599C47.5587 48.5911 47.5173 48.3016 47.5173 47.981C47.5173 47.5364 47.5794 47.1642 47.7037 46.8746C47.828 46.5851 47.9834 46.3576 48.1802 46.1922C48.3771 46.0164 48.5946 45.8923 48.8432 45.8199C49.3508 45.6648 49.8791 45.6752 50.3867 45.7786C50.6354 45.8303 50.9151 45.913 51.2258 46.0164L51.578 46.1405V44.7342L51.433 44.6618C51.1844 44.5377 50.8943 44.4343 50.5525 44.362C49.9724 44.2379 49.3301 44.2172 48.6568 44.3413C48.3667 44.393 48.0767 44.486 47.797 44.6101C47.5173 44.7342 47.2583 44.8997 47.0097 45.0858C46.761 45.2822 46.5435 45.5304 46.357 45.8096C46.1706 46.0888 46.0256 46.4197 45.922 46.7816C45.8184 47.1435 45.7666 47.5571 45.7666 48.0017C45.7666 48.6014 45.8702 49.1391 46.067 49.5838C46.2638 50.0387 46.5435 50.411 46.8957 50.7108C47.2376 51.0004 47.6519 51.2278 48.1077 51.3623C48.5635 51.4967 49.0401 51.5691 49.5476 51.5691C49.7445 51.5691 49.9413 51.5587 50.1278 51.5381C50.3246 51.5174 50.5007 51.4864 50.6768 51.4553C50.8036 51.433 50.9196 51.4 51.0326 51.3678C51.0766 51.3552 51.1201 51.3428 51.1637 51.3312C51.3191 51.2795 51.4434 51.2278 51.5366 51.1761L51.6816 51.1038V49.6872L51.3191 49.8216C51.0601 49.9146 50.7804 49.9974 50.5007 50.0491ZM57.6692 44.4236H60L56.1982 47.6705L59.9068 51.4033H57.721L54.6651 48.3322V51.4033H52.9765V41.0527H54.6651V47.0087L57.6692 44.4236Z" fill="#666666"/>
<path d="M31.5299 32.3689H46.0764V14.5994L29.4737 5.14004L12.871 14.5994V16.3743H8.50292H8.42108V12.0037L29.4737 0L50.5263 12.0037V36.8421H31.5299V36.8216V33.9592V32.6767V32.3689Z" fill="#666666"/>
<path fill-rule="evenodd" clip-rule="evenodd" d="M12.7891 20.5201H13.7917H16.9219V19.6378V17.668H12.7891H8.42108V19.6378V20.5201H11.7662H12.7891ZM12.7891 27.0354H13.7917H16.9219V26.1531V25.0656V24.1833H13.7917H12.7891H11.7662H8.42108V25.0656V26.1531V27.0354H11.7662H12.7891ZM12.5027 22.9004V23.7827H11.7662H8.42108V22.9004V21.8128V20.9203H11.7662H12.5027V21.8128V22.9004ZM13.0551 20.9203V21.8128V22.9004V23.7827H13.7917H18.2006H21.556V20.9203H18.2006H13.7917H13.0551ZM12.5027 29.4151V30.2974H11.7662H8.42108V29.4151V28.3276V27.4452H11.7662H12.5027V28.3276V29.4151ZM21.556 30.2974V29.4151V27.4452H18.2006H13.7917H13.0551V28.3276V29.4151V30.2974H13.7917H15.9604H17.9858H21.556ZM15.9603 33.5599H13.6894H11.5514H8.42108V32.6776V31.5901V30.7077H11.7662H12.7891H13.7917H15.9603H16.6969V31.5901V32.3698V32.6776V33.5599H15.9603ZM17.2493 30.7077V31.5901V32.3698V32.6776V33.5599H17.9858H20.3795H22.405H25.7501V32.6776V32.3698V30.7077H22.8347H17.9858H17.2493ZM8.42108 34.853V33.9604H11.5514H12.4004V34.853V36.8229H11.5514H8.42108V34.853ZM17.9858 33.9604H15.9603H13.6894H12.8301V34.853V36.8229H13.6894H20.3796H21.1161V34.853V33.9604H20.3796H17.9858ZM22.405 33.9604H27.0391H30.1591V36.8229H22.405H21.6583V34.853V33.9604H22.405Z" fill="#C7C7C7"/>
</g>
<defs>
<clipPath id="clip0_206_37430">
<rect width="60" height="51.5789" fill="white"/>
</clipPath>
</defs>
</svg>
