<svg width="40" height="40" viewBox="0 0 40 40" fill="none" xmlns="http://www.w3.org/2000/svg">
<g clip-path="url(#clip0_239_30963)">
<path d="M24 30.5H23.1295L22.6976 31.2558L20 35.9767L17.3024 31.2558L16.8705 30.5H16H6C4.067 30.5 2.5 28.933 2.5 27V9C2.5 7.067 4.067 5.5 6 5.5H34C35.933 5.5 37.5 7.067 37.5 9V27C37.5 28.933 35.933 30.5 34 30.5H24Z" stroke="#111111" stroke-width="3"/>
<path fill-rule="evenodd" clip-rule="evenodd" d="M30.4904 23.0349C30.3449 23.2454 30.0294 23.5262 29.7867 23.6754C29.3905 23.9035 29.245 23.9383 28.5168 23.9649L27.6838 24V22.2283H28.0558C28.703 22.2283 29.075 21.851 29.1881 21.0878L29.2447 20.7016L29.0185 20.8948C28.7354 21.1402 28.2499 21.2807 27.6676 21.2894C27.3038 21.2894 27.0935 21.228 26.6808 21.0089C25.7588 20.5176 25.4191 19.8422 25.4191 18.4912C25.4191 16.8773 26.0984 15.8771 27.3927 15.5876C28.0803 15.4384 28.6785 15.5876 29.1236 16.0263L29.3015 16.2016V15.649H31V18.7017C31 22.0967 30.9676 22.3509 30.4904 23.0349ZM14.4512 19.7806C14.2409 20.2629 13.7961 20.7543 13.3351 20.9824V20.9827C12.5666 21.3772 11.7418 21.3683 11.1757 20.9562C10.8036 20.6929 10.7792 20.6929 10.7792 20.9121C10.7792 21.0878 10.7388 21.0967 9.91374 21.0702L9.04035 21.0437L9.0159 17.1664L9 13.2808H10.7792V16.202L10.9653 16.0263C11.5394 15.456 12.5911 15.3771 13.4158 15.8422C13.8123 16.07 14.3057 16.7195 14.4674 17.2367C14.686 17.921 14.6778 19.2279 14.4512 19.7806ZM24.2382 19.7368C23.9714 20.2546 23.3 20.8773 22.8066 21.0702C21.9978 21.3948 21.0272 21.3507 20.3234 20.9562C19.838 20.6843 19.3042 20.0614 19.0698 19.4911C18.8756 19.0174 18.8515 18.8771 18.8836 18.2896C18.908 17.7632 18.9725 17.5175 19.1508 17.1492C19.7166 16.0263 21.011 15.3947 22.2081 15.649C24.1169 16.0528 25.1199 18.0702 24.2382 19.7368ZM17.6947 15.0791L17.7189 18.0788L17.743 21.0878H15.9559V15.5439L15.6808 15.2458C15.527 15.0791 15.3491 14.9474 15.2763 14.9474C15.1632 14.9474 15.147 14.8069 15.147 13.9737V13L15.4946 13.0613C16.4652 13.2367 17.0558 13.6757 17.4278 14.4912L17.6947 15.0791ZM27.4521 17.8414C27.1366 18.4031 27.347 19.1924 27.8807 19.4381C28.1959 19.5873 28.3417 19.5959 28.6413 19.4733C29.2478 19.2273 29.4985 18.5874 29.2478 17.9641C28.9082 17.131 27.8893 17.061 27.4521 17.8414ZM11.405 17.5082C10.7578 17.8414 10.6933 18.8941 11.2919 19.3416C11.696 19.6486 12.4646 19.4381 12.6911 18.9557C13.1441 18.0082 12.2946 17.0521 11.405 17.5082ZM20.8606 19.0885C20.9426 19.2121 21.0471 19.3161 21.1675 19.3943C21.8795 19.8678 22.7608 19.2889 22.7608 18.3503C22.7608 18.0258 22.7125 17.9207 22.4457 17.6309C22.1785 17.3329 22.0816 17.2891 21.7823 17.2891C21.3292 17.2891 21.0786 17.4293 20.8441 17.8063C20.7652 17.9323 20.7109 18.0744 20.6845 18.2239C20.658 18.3734 20.66 18.5272 20.6903 18.6759C20.7205 18.8246 20.7785 18.965 20.8606 19.0885Z" fill="#111111"/>
</g>
<defs>
<clipPath id="clip0_239_30963">
<rect width="40" height="40" fill="white"/>
</clipPath>
</defs>
</svg>
